<?xml version="1.0" encoding="iso-8859-1"?>
<!-- Generator: Adobe Illustrator 19.0.0, SVG Export Plug-In . SVG Version: 6.00 Build 0)  -->
<svg version="1.1" id="Layer_1" xmlns="http://www.w3.org/2000/svg" xmlns:xlink="http://www.w3.org/1999/xlink" x="0px" y="0px"
	 viewBox="0 0 511.881 511.881" style="enable-background:new 0 0 511.881 511.881;" xml:space="preserve">
<rect x="53.331" y="75.341" style="fill:#3BAFDA;" width="405.22" height="436.54"/>
<rect x="74.651" y="54.011" style="fill:#F5F7FA;" width="362.57" height="436.53"/>
<rect x="53.331" y="32.688" style="fill:#4FC2E9;" width="405.22" height="436.55"/>
<polygon style="fill:#E6E9ED;" points="117.317,351.685 196.533,219.652 275.749,351.685 "/>
<polygon style="fill:#F5F7FA;" points="183.333,351.685 288.949,166.844 394.565,351.685 "/>
<g>
	<path style="fill:#E6E9ED;" d="M127.97,63.985c-5.89,0-10.653-4.772-10.653-10.661V10.662C117.317,4.772,122.081,0,127.97,0
		c5.889,0,10.67,4.772,10.67,10.662v42.662C138.64,59.212,133.86,63.985,127.97,63.985z"/>
	<path style="fill:#E6E9ED;" d="M191.956,63.985c-5.89,0-10.669-4.772-10.669-10.661V10.662c0-5.89,4.779-10.662,10.669-10.662
		s10.669,4.772,10.669,10.662v42.662C202.625,59.212,197.845,63.985,191.956,63.985z"/>
	<path style="fill:#E6E9ED;" d="M255.941,63.985c-5.89,0-10.67-4.772-10.67-10.661V10.662c0-5.89,4.78-10.662,10.67-10.662
		c5.889,0,10.669,4.772,10.669,10.662v42.662C266.61,59.212,261.83,63.985,255.941,63.985z"/>
	<path style="fill:#E6E9ED;" d="M319.925,63.985c-5.889,0-10.669-4.772-10.669-10.661V10.662c0-5.89,4.78-10.662,10.669-10.662
		c5.891,0,10.67,4.772,10.67,10.662v42.662C330.595,59.212,325.816,63.985,319.925,63.985z"/>
	<path style="fill:#E6E9ED;" d="M383.912,63.985c-5.89,0-10.67-4.772-10.67-10.661V10.662c0-5.89,4.78-10.662,10.67-10.662
		c5.889,0,10.653,4.772,10.653,10.662v42.662C394.565,59.212,389.8,63.985,383.912,63.985z"/>
</g>
<g>
</g>
<g>
</g>
<g>
</g>
<g>
</g>
<g>
</g>
<g>
</g>
<g>
</g>
<g>
</g>
<g>
</g>
<g>
</g>
<g>
</g>
<g>
</g>
<g>
</g>
<g>
</g>
<g>
</g>
</svg>
